PathFileType	4	(X/Y/Z)	/Users/itak/Documents/Research/Walk-IL/dataset/trc/00101_00007.trc
DataRate	CameraRate	NumFrames	NumMarkers	Units	OrigDataRate	OrigDataStartFrame	OrigNumFrames
100.000000	100.000000	4	53	mm	100.000000	362	580
Frame#	Time	RPSI			LPSI			L3			STRN			T10			C7			CLAV			RBAK			LBAK			LSHO			LUPA			LAEL			LAOL			LWTS			LWPS			LFRA			LIFD			LHPS			LHTS			RSHO			RUPA			RAEL			RAOL			RWTS			RWPS			RFRA			RIFD			RHTS			RHPS			RBHD			LFHD			RFHD			LBHD			LHIP			RHIP			RASI			LASI			LKNE			LTHI			LANK			LTIP			LTOE			LMT1			LMT5			LHEE			RKNE			RTHI			RANK			RTIP			RTOE			RMT1			RMT5			RHEE			
		X1	Y1	Z1	X2	Y2	Z2	X3	Y3	Z3	X4	Y4	Z4	X5	Y5	Z5	X6	Y6	Z6	X7	Y7	Z7	X8	Y8	Z8	X9	Y9	Z9	X10	Y10	Z10	X11	Y11	Z11	X12	Y12	Z12	X13	Y13	Z13	X14	Y14	Z14	X15	Y15	Z15	X16	Y16	Z16	X17	Y17	Z17	X18	Y18	Z18	X19	Y19	Z19	X20	Y20	Z20	X21	Y21	Z21	X22	Y22	Z22	X23	Y23	Z23	X24	Y24	Z24	X25	Y25	Z25	X26	Y26	Z26	X27	Y27	Z27	X28	Y28	Z28	X29	Y29	Z29	X30	Y30	Z30	X31	Y31	Z31	X32	Y32	Z32	X33	Y33	Z33	X34	Y34	Z34	X35	Y35	Z35	X36	Y36	Z36	X37	Y37	Z37	X38	Y38	Z38	X39	Y39	Z39	X40	Y40	Z40	X41	Y41	Z41	X42	Y42	Z42	X43	Y43	Z43	X44	Y44	Z44	X45	Y45	Z45	X46	Y46	Z46	X47	Y47	Z47	X48	Y48	Z48	X49	Y49	Z49	X50	Y50	Z50	X51	Y51	Z51	X52	Y52	Z52	X53	Y53	Z53	

363	3.62	-256.8963928222656	1112.69970703125	-294.5681457519531	-251.2509460449219	1122.680053710938	-429.6582946777344	-262.1077880859375	1156.869995117188	-366.5118103027344	-39.45209503173828	1359.20361328125	-356.6797180175781	-293.9622497558594	1311.609619140625	-372.2621765136719	-248.3758239746094	1601.965209960938	-391.6015930175781	-71.32973480224609	1494.902099609375	-363.0011596679688	-312.8246154785156	1419.77734375	-306.2275390625	-247.0057983398438	1581.603393554688	-493.572998046875	-153.8641204833984	1568.247192382812	-550.717041015625	-153.9346313476562	1438.859008789062	-624.6353759765625	-100.4157257080078	1226.740966796875	-654.5235595703125	-168.2413482666016	1198.634521484375	-606.2612915039062	48.39313507080078	995.1943969726562	-615.62841796875	-24.85215187072754	952.8793334960938	-648.4324340820312	-60.56523132324219	1116.8876953125	-662.2052001953125	97.83744049072266	806.5225219726562	-597.4071655273438	19.48733520507812	885.822998046875	-649.7202758789062	82.52320098876953	910.904052734375	-628.3099975585938	-209.9207458496094	1585.282348632812	-204.5784301757812	-236.9398956298828	1515.294067382812	-142.7672729492188	-287.1690063476562	1227.690551757812	-121.3932418823242	-286.7028198242188	1227.71435546875	-218.2062683105469	-183.4674224853516	964.2888793945312	-132.4482269287109	-260.7013854980469	960.4750366210938	-103.1376724243164	-275.4992065429688	1151.890747070312	-105.2290496826172	-196.4804534912109	767.7406005859375	-154.2149505615234	-175.7544555664062	851.3984375	-129.9984588623047	-242.7455139160156	855.7236328125	-100.7070236206055	-215.30908203125	1769.267822265625	-305.1347045898438	-55.64665985107422	1841.729125976562	-440.4628295898438	-56.23093032836914	1850.694702148438	-311.5162963867188	-222.0433044433594	1764.021484375	-442.1736145019531	-155.7562103271484	1040.061767578125	-539.0224609375	-121.7456970214844	1020.928833007812	-177.2926177978516	-48.94678115844727	1100.631591796875	-229.1153564453125	-49.27493667602539	1104.220825195312	-494.647705078125	-113.2769393920898	535.2947998046875	-488.7493286132812	-138.9025268554688	680.12841796875	-522.809814453125	-203.3829956054688	29.36153602600098	-443.3305053710938	-205.4227600097656	284.1544799804688	-495.7211608886719	27.94150161743164	40.01353073120117	-390.6717224121094	-52.3070182800293	46.51002883911133	-355.1908264160156	-80.03244781494141	30.52482223510742	-472.2544860839844	-270.4529724121094	35.83339691162109	-381.2798156738281	40.17875671386719	556.0192260742188	-221.5758209228516	-41.46981048583984	824.6446533203125	-186.3136749267578	-177.9897613525391	72.31239318847656	-208.9661865234375	-12.47068881988525	426.5303039550781	-203.832763671875	50.01587677001953	64.70797729492188	-232.3414154052734	-0.917889416217804	51.50455093383789	-282.5133666992188	-51.549072265625	56.36199188232422	-172.2593536376953	-228.3170928955078	84.11235809326172	-264.0418701171875	
364	3.63	-250.1045989990234	1112.687866210938	-294.6335754394531	-244.7888031005859	1122.540161132812	-429.73583984375	-255.5022125244141	1156.828369140625	-366.6774597167969	-32.78787994384766	1359.045654296875	-357.0863037109375	-287.3072814941406	1311.600341796875	-372.6177978515625	-241.5081939697266	1601.914794921875	-391.8408508300781	-64.51650238037109	1494.790283203125	-363.180419921875	-306.065185546875	1419.707397460938	-306.6715087890625	-240.0891571044922	1581.671020507812	-493.8697509765625	-146.8439636230469	1568.409545898438	-550.8180541992188	-146.2236328125	1439.18896484375	-624.8914184570312	-90.97050476074219	1227.544799804688	-654.8607177734375	-158.3184967041016	1198.6494140625	-606.47021484375	61.32035827636719	998.279541015625	-616.245849609375	-11.38633155822754	954.7969970703125	-648.7802734375	-49.66393661499023	1118.225952148438	-662.63671875	114.1183547973633	810.8731689453125	-598.1488037109375	34.05032348632812	888.472900390625	-650.1253051757812	96.860107421875	914.6663818359375	-629.0963134765625	-203.1638946533203	1585.04248046875	-204.7842712402344	-230.3946533203125	1515.066772460938	-143.0740203857422	-281.5389709472656	1227.608276367188	-122.3577499389648	-280.9061584472656	1227.894653320312	-219.2020111083984	-178.4896545410156	963.8787841796875	-133.8514099121094	-255.9314880371094	960.2588500976562	-104.6661911010742	-270.1304931640625	1151.757934570312	-106.3457641601562	-192.3918762207031	767.4442138671875	-156.2868957519531	-171.3631744384766	850.9376831054688	-131.8163299560547	-238.3124084472656	855.4348754882812	-102.5146789550781	-208.0953063964844	1769.282958984375	-305.1985778808594	-48.17311859130859	1841.600463867188	-440.3031311035156	-48.88423156738281	1850.29736328125	-311.286376953125	-214.872802734375	1764.134399414062	-442.0682678222656	-149.2263031005859	1039.665649414062	-539.1320190429688	-114.277961730957	1021.182861328125	-177.3355102539062	-42.00075149536133	1100.737426757812	-229.6246643066406	-42.90438461303711	1103.91650390625	-495.1994323730469	-109.7060546875	534.9288940429688	-488.7449645996094	-134.5984954833984	679.9237670898438	-522.76025390625	-203.3579254150391	29.55687522888184	-443.1910705566406	-203.6321868896484	284.3334045410156	-495.5872497558594	28.27595329284668	39.72334671020508	-390.5004272460938	-52.1568489074707	46.37158584594727	-355.1656799316406	-80.01008605957031	30.50065040588379	-472.3186340332031	-270.407470703125	36.18859481811523	-381.132080078125	50.70461273193359	557.8377685546875	-221.4373474121094	-33.31541061401367	825.6202392578125	-185.8580474853516	-151.7772521972656	67.489013671875	-208.7005615234375	1.875664710998535	426.9872436523438	-203.4788970947266	76.53975677490234	67.12546539306641	-232.0240783691406	25.97199630737305	52.17917251586914	-282.1680908203125	-24.86350059509277	55.78335571289062	-171.9346923828125	-202.4442291259766	77.68280029296875	-263.7211608886719	
365	3.64	-243.2939758300781	1112.627075195312	-294.642578125	-238.3178863525391	1122.366455078125	-429.7637634277344	-248.8673248291016	1156.73876953125	-366.7794494628906	-26.12201309204102	1358.832153320312	-357.4271850585938	-280.658203125	1311.526489257812	-372.9063415527344	-234.6651763916016	1601.802856445312	-392.0298156738281	-57.72426223754883	1494.615966796875	-363.3124084472656	-299.3276977539062	1419.572631835938	-307.0523986816406	-233.2037200927734	1581.66845703125	-494.1110229492188	-139.8602600097656	1568.47314453125	-550.8784790039062	-138.6257629394531	1439.408569335938	-625.094482421875	-81.83921051025391	1228.204956054688	-655.1026000976562	-148.6143798828125	1198.567016601562	-606.4832153320312	73.95108795166016	1001.309997558594	-616.78759765625	1.748220682144165	956.6167602539062	-648.9193115234375	-39.12309265136719	1119.419311523438	-662.9395141601562	130.2369537353516	815.3514404296875	-598.801025390625	48.31317901611328	891.062255859375	-650.3341674804688	110.8821792602539	918.4030151367188	-629.7803955078125	-196.4335479736328	1584.748657226562	-204.9390411376953	-223.8502349853516	1514.773803710938	-143.3269348144531	-275.7609558105469	1227.429443359375	-123.2534713745117	-274.9358825683594	1227.9697265625	-220.1300659179688	-173.2594909667969	963.4320678710938	-135.1313629150391	-250.9007110595703	959.9627685546875	-106.096435546875	-264.5790100097656	1151.534912109375	-107.3800201416016	-187.9062652587891	767.1026000976562	-158.2077789306641	-166.6278839111328	850.4453125	-133.4833221435547	-233.5543975830078	855.078369140625	-104.2065582275391	-200.9038238525391	1769.264404296875	-305.2726745605469	-40.72853469848633	1841.40234375	-440.1085510253906	-41.58623886108398	1849.81982421875	-311.0045471191406	-207.7354278564453	1764.192016601562	-441.914306640625	-142.73779296875	1039.250244140625	-539.22021484375	-106.896484375	1021.359558105469	-177.3402862548828	-35.05757522583008	1100.770874023438	-230.0694580078125	-36.52300643920898	1103.566650390625	-495.6845092773438	-106.1336059570312	534.5562744140625	-488.7096252441406	-130.2527770996094	679.7036743164062	-522.6522216796875	-203.3279571533203	29.75824165344238	-443.0476684570312	-201.8317108154297	284.5087890625	-495.4461975097656	28.61262512207031	39.44478988647461	-390.3370666503906	-51.98617553710938	46.25312423706055	-355.1371765136719	-79.99229431152344	30.47604560852051	-472.3725891113281	-270.3572387695312	36.56108856201172	-380.9755554199219	60.88113403320312	559.486572265625	-221.2111206054688	-25.28243637084961	826.462158203125	-185.4195098876953	-125.6011734008789	63.00678634643555	-208.5497741699219	15.96479988098145	427.3648376464844	-203.1114654541016	102.7541656494141	69.63845825195312	-231.8573455810547	52.58749389648438	53.04357528686523	-281.9736633300781	1.617929577827454	55.42644119262695	-171.7475128173828	-176.6133117675781	71.66476440429688	-263.5194396972656	
366	3.65	-236.4669036865234	1112.517456054688	-294.59375	-231.8316497802734	1122.158325195312	-429.7375793457031	-242.2062683105469	1156.599975585938	-366.8153076171875	-19.44941329956055	1358.562255859375	-357.7023315429688	-274.0134887695312	1311.386962890625	-373.1216735839844	-227.8430633544922	1601.625610351562	-392.1670837402344	-50.94723892211914	1494.378295898438	-363.3948974609375	-292.6037292480469	1419.368896484375	-307.3671875	-226.3475494384766	1581.5927734375	-494.2950439453125	-132.9107818603516	1568.435180664062	-550.8992309570312	-131.1492614746094	1439.511474609375	-625.2423706054688	-73.00719451904297	1228.714111328125	-655.2549438476562	-139.1271209716797	1198.382202148438	-606.3189086914062	86.27485656738281	1004.264099121094	-617.2493286132812	14.55235290527344	958.3270874023438	-648.859619140625	-28.92485237121582	1120.457885742188	-663.119873046875	146.119140625	819.873291015625	-599.3455810546875	62.27001571655273	893.5740356445312	-650.3563232421875	124.5682754516602	922.0789794921875	-630.3466186523438	-189.7257080078125	1584.399169921875	-205.0412750244141	-217.3019714355469	1514.416381835938	-143.5254364013672	-269.8392028808594	1227.154174804688	-124.0732192993164	-268.79638671875	1227.937866210938	-220.9801330566406	-167.7886962890625	962.9469604492188	-136.2946929931641	-245.6036682128906	959.585693359375	-107.4208602905273	-258.8491821289062	1151.21923828125	-108.3272399902344	-183.0108489990234	766.712890625	-159.9664764404297	-161.5191802978516	849.9244995117188	-134.9860992431641	-228.4705657958984	854.6528930664062	-105.7744369506836	-193.7437591552734	1769.1865234375	-305.3157348632812	-33.32654190063477	1841.126098632812	-439.8703918457031	-34.32157135009766	1849.274291992188	-310.679443359375	-200.6278991699219	1764.1875	-441.7123718261719	-136.3130493164062	1038.8232421875	-539.284912109375	-99.61839294433594	1021.458679199219	-177.3145446777344	-28.11084175109863	1100.729370117188	-230.4537353515625	-30.12543487548828	1103.171020507812	-496.105224609375	-102.5560760498047	534.1715087890625	-488.6448974609375	-125.8714065551758	679.465576171875	-522.494384765625	-203.2899017333984	29.96927642822266	-442.8925170898438	-200.0181427001953	284.6771545410156	-495.2954711914062	28.95403289794922	39.17107009887695	-390.1814270019531	-51.79903030395508	46.15413665771484	-355.1153869628906	-79.98021697998047	30.45206451416016	-472.4157409667969	-270.29345703125	36.93820571899414	-380.8005981445312	70.69687652587891	560.9509887695312	-220.9021148681641	-17.36913871765137	827.1649169921875	-185.0047454833984	-99.5125732421875	58.86428070068359	-208.5294342041016	29.76514625549316	427.6551818847656	-202.7373657226562	128.6410217285156	72.22054290771484	-231.8521118164062	78.907470703125	54.09341430664062	-281.9258422851562	27.85378074645996	55.26921844482422	-171.7016754150391	-150.8610992431641	66.06686401367188	-263.4466552734375	
